<svg xmlns="http://www.w3.org/2000/svg" viewBox="0 0 64 64"><g id="Layer_97" data-name="Layer 97"><path d="M36,15a4.08,4.08,0,0,0-4.07,0L16.28,22H12a1.5,1.5,0,0,0-1.5,1.5v17A1.5,1.5,0,0,0,12,42h4.28l15.61,7.06A4.16,4.16,0,0,0,38,45.42V18.58A4.1,4.1,0,0,0,36,15ZM13.5,25h1.6V39H13.5Z"/><path d="M48.16,19.11A1.5,1.5,0,0,0,46,21.23a15.25,15.25,0,0,1,0,21.54,1.51,1.51,0,0,0,1.06,2.56,1.47,1.47,0,0,0,1.06-.44A18.25,18.25,0,0,0,48.16,19.11Z"/><path d="M43.2,24.07a1.5,1.5,0,0,0-2.12,2.12,8.21,8.21,0,0,1,0,11.62,1.51,1.51,0,0,0,1.06,2.56,1.47,1.47,0,0,0,1.06-.44A11.21,11.21,0,0,0,43.2,24.07Z"/></g></svg>